<svg width="1440" height="666" viewBox="0 0 1440 666" fill="none" xmlns="http://www.w3.org/2000/svg">
<path d="M1233.41 320.601C1298.52 381.335 1388.29 385.871 1440 377.351V665H398V456.195C408.027 456.195 425.299 452.093 442.217 456.195C479.876 465.324 524.358 534.837 562.126 543.307C654.152 563.948 750.526 415.595 750.526 415.595C750.526 415.595 818.343 328.616 864.291 275.842C909.218 224.241 951.735 195 1043.27 195C1117.2 195 1188.2 278.422 1233.41 320.601Z" fill="#FFFAF4"/>
<path d="M287.099 264.545C197.248 335.164 73.3581 340.438 2 330.532V665H1440V422.208C1426.16 422.208 1402.33 417.439 1378.98 422.208C1327.01 432.824 1265.62 513.65 1213.5 523.5C1086.5 547.5 953.5 375 953.5 375C953.5 375 859.91 273.864 796.5 212.5C734.5 152.5 675.824 118.5 549.5 118.5C447.478 118.5 349.5 215.5 287.099 264.545Z" fill="#FDF6EE"/>
<path d="M0 498.669C28.934 474.526 78.6557 439.244 137.925 423.243C205.5 405 322.663 391.964 371.172 466.201C395.132 502.869 369.128 544.5 398 576.5C426.691 608.299 474.941 587.863 511.5 605C543.5 620 552 646.5 567 665" stroke="#E4E4E4"/>
<path d="M92.3297 322.798C91.7908 320.553 93.8849 318.566 96.0992 319.222L102.742 321.19C104.956 321.846 105.63 324.653 103.954 326.243L98.9285 331.012C97.2532 332.601 94.4854 331.781 93.9465 329.535L92.3297 322.798Z" fill="#9AB1EC"/>
<path d="M1165.47 535.936C1164.93 533.69 1167.02 531.703 1169.24 532.359L1175.88 534.327C1178.09 534.984 1178.77 537.791 1177.09 539.38L1172.07 544.149C1170.39 545.738 1167.62 544.918 1167.08 542.673L1165.47 535.936Z" fill="#EC9AC1"/>
<path d="M882.467 92.9356C881.928 90.69 884.022 88.7031 886.236 89.3591L892.879 91.3274C895.093 91.9835 895.767 94.7906 894.092 96.3801L889.066 101.149C887.39 102.738 884.623 101.918 884.084 99.6725L882.467 92.9356Z" fill="#A6EC9A"/>
<circle cx="585.5" cy="49.5" r="4.5" fill="#FFD6D6"/>
<circle cx="1309.5" cy="10.5" r="4.5" fill="#F9D6FF"/>
<rect x="751.651" y="27.5217" width="45.7199" height="45.7199" rx="10" transform="rotate(-35.9958 751.651 27.5217)" fill="#0CBE64"/>
</svg>
